<svg xmlns="http://www.w3.org/2000/svg" viewBox="0 0 442.7 323"><defs><style>.cls-1{fill:#26344d;}.cls-2{fill:#fff;}</style></defs><title>web_1</title><g id="Layer_2" data-name="Layer 2"><g id="Capa_1" data-name="Capa 1"><path class="cls-1" d="M430.7,323H12A12.15,12.15,0,0,1,0,310.77V12.23A12.15,12.15,0,0,1,12,0H430.7a12.15,12.15,0,0,1,12,12.23V310.77A12.15,12.15,0,0,1,430.7,323Z"/><path class="cls-2" d="M397.6,307.83H40.7a12.28,12.28,0,0,1-12-12.48V82.05a12.28,12.28,0,0,1,12-12.48H397.6a12.28,12.28,0,0,1,12,12.48v213.3A12.28,12.28,0,0,1,397.6,307.83Z"/><rect class="cls-2" x="62.03" y="24.9" width="368.33" height="18.19"/><rect class="cls-2" x="14.37" y="53" width="416" height="254.83"/><circle class="cls-2" cx="23.7" cy="34" r="9.33"/><circle class="cls-2" cx="47.7" cy="34" r="9.33"/></g></g></svg>